<svg width="92" height="94" viewBox="0 0 92 94" fill="none" xmlns="http://www.w3.org/2000/svg">
<path d="M46 0.16629C49.6939 4.82296 53.0794 9.39672 56.1565 13.8876C59.2336 18.3749 62.0193 22.7829 64.5135 27.1115L91.75 5.8125V45.5C91.75 52.0722 90.547 58.2564 88.1408 64.0526C85.7347 69.8487 82.4695 74.8882 78.3453 79.1709C74.2278 83.4606 69.3867 86.8579 63.8222 89.3626C58.2542 91.8709 52.3135 93.125 46 93.125C39.6865 93.125 33.7458 91.8726 28.1778 89.3679C22.6133 86.8597 17.7723 83.4606 13.6548 79.1709C9.53386 74.8846 6.27036 69.8452 3.86425 64.0526C1.45475 58.2564 0.25 52.0722 0.25 45.5V5.8125L27.4865 27.1115C29.9807 22.8711 32.7664 18.4843 35.8435 13.9511C38.9206 9.42142 42.3061 4.82648 46 0.16629ZM5.33333 16.3958V45.5C5.33333 52.231 6.76514 58.417 9.62875 64.0579C12.4924 69.6988 16.3354 74.3343 21.1578 77.9644C19.426 75.7242 18.0501 73.2019 17.0301 70.3973C16.01 67.5927 15.5 64.5853 15.5 61.375C15.5 57.3639 16.2845 52.8607 17.8536 47.8654C19.4193 42.87 21.7525 37.469 24.8533 31.6623L5.33333 16.3958ZM46 8.45833C37.9175 18.5831 31.6616 28.3762 27.2323 37.8377C22.7997 47.3027 20.5833 55.1485 20.5833 61.375C20.5833 68.6951 23.0623 74.9358 28.0203 80.0969C32.9782 85.258 38.9714 87.8369 46 87.8333C53.0319 87.8333 59.0269 85.2528 63.9848 80.0916C68.9428 74.9305 71.4201 68.6916 71.4167 61.375C71.4167 55.1485 69.2003 47.2921 64.7677 37.8059C60.3384 28.3232 54.0825 18.5407 46 8.45833ZM86.6667 16.3958L67.1467 31.6305C70.2475 37.4373 72.5825 42.8383 74.1515 47.8336C75.7172 52.8325 76.5 57.3463 76.5 61.375C76.5 64.5853 75.99 67.5927 74.9699 70.3973C73.9532 73.2019 72.5774 75.7242 70.8422 77.9644C75.6646 74.3308 79.5076 69.6953 82.3713 64.0579C85.2349 58.4134 86.6667 52.2275 86.6667 45.5V16.3958Z" fill="black"/>
</svg>
