<svg width="217" height="218" viewBox="0 0 217 218" fill="none" xmlns="http://www.w3.org/2000/svg">
<path d="M108 0.16629C111.694 4.82296 115.079 9.39672 118.157 13.8876C121.234 18.3749 124.019 22.7829 126.514 27.1115L153.75 5.8125V45.5C153.75 52.0722 152.547 58.2564 150.141 64.0526C147.735 69.8487 144.47 74.8882 140.345 79.1709C136.228 83.4606 131.387 86.8579 125.822 89.3626C120.254 91.8709 114.314 93.125 108 93.125C101.687 93.125 95.7458 91.8726 90.1778 89.3679C84.6133 86.8597 79.7723 83.4606 75.6548 79.1709C71.5339 74.8846 68.2704 69.8452 65.8642 64.0526C63.4547 58.2564 62.25 52.0722 62.25 45.5V5.8125L89.4865 27.1115C91.9807 22.8711 94.7664 18.4843 97.8435 13.9511C100.921 9.42142 104.306 4.82648 108 0.16629ZM67.3333 16.3958V45.5C67.3333 52.231 68.7651 58.417 71.6287 64.0579C74.4924 69.6988 78.3354 74.3343 83.1578 77.9644C81.426 75.7242 80.0501 73.2019 79.0301 70.3973C78.01 67.5927 77.5 64.5853 77.5 61.375C77.5 57.3639 78.2845 52.8607 79.8536 47.8654C81.4193 42.87 83.7525 37.469 86.8533 31.6623L67.3333 16.3958ZM108 8.45833C99.9175 18.5831 93.6616 28.3762 89.2323 37.8377C84.7997 47.3027 82.5833 55.1485 82.5833 61.375C82.5833 68.6951 85.0623 74.9358 90.0203 80.0969C94.9782 85.258 100.971 87.8369 108 87.8333C115.032 87.8333 121.027 85.2528 125.985 80.0916C130.943 74.9305 133.42 68.6916 133.417 61.375C133.417 55.1485 131.2 47.2921 126.768 37.8059C122.338 28.3232 116.083 18.5407 108 8.45833ZM148.667 16.3958L129.147 31.6305C132.248 37.4373 134.582 42.8383 136.152 47.8336C137.717 52.8325 138.5 57.3463 138.5 61.375C138.5 64.5853 137.99 67.5927 136.97 70.3973C135.953 73.2019 134.577 75.7242 132.842 77.9644C137.665 74.3308 141.508 69.6953 144.371 64.0579C147.235 58.4134 148.667 52.2275 148.667 45.5V16.3958Z" fill="black"/>
<path d="M4.96484 151.738C4.96484 150.97 5.23828 150.456 5.78516 150.195C5.96745 150.104 6.19531 150.059 6.46875 150.059H15.5508C18.1029 150.059 20.2773 150.599 22.0742 151.68C24.2617 152.969 25.3555 154.941 25.3555 157.598C25.3555 159.408 24.8346 160.918 23.793 162.129C22.8555 163.197 21.6576 163.874 20.1992 164.16V164.238C22.1914 164.329 23.8451 164.909 25.1602 165.977C26.6576 167.227 27.4062 168.906 27.4062 171.016C27.4062 174.089 26.2799 176.4 24.0273 177.949C22.0612 179.316 19.3919 180 16.0195 180H6.46875C5.9349 180 5.55078 179.837 5.31641 179.512C5.08203 179.173 4.96484 178.776 4.96484 178.32V151.738ZM9.80859 162.793C11.7878 162.793 13.3698 162.754 14.5547 162.676C16.5599 162.559 18.0312 162.116 18.9688 161.348C19.9062 160.566 20.375 159.479 20.375 158.086C20.375 156.693 19.8737 155.697 18.8711 155.098C17.8815 154.486 16.3971 154.18 14.418 154.18H9.80859V162.793ZM15.9805 175.84C18.8451 175.84 20.7461 175.026 21.6836 173.398C22.0352 172.799 22.2109 172.096 22.2109 171.289C22.2109 170.482 22.1003 169.837 21.8789 169.355C21.6576 168.874 21.3581 168.464 20.9805 168.125C20.6029 167.786 20.1602 167.52 19.6523 167.324C19.1445 167.116 18.6107 166.953 18.0508 166.836C17.0742 166.654 16.0977 166.562 15.1211 166.562C13.8971 166.562 12.6016 166.595 11.2344 166.66L9.80859 166.719L9.82812 175.84H15.9805ZM36.918 170.059L36.8984 170.43C36.8984 172.214 37.4648 173.646 38.5977 174.727C39.7826 175.872 41.3906 176.445 43.4219 176.445C45.2708 176.445 46.9896 175.892 48.5781 174.785C48.8776 174.577 49.1445 174.473 49.3789 174.473C49.8607 174.473 50.2253 174.714 50.4727 175.195L51 176.289C51.1172 176.549 51.1758 176.829 51.1758 177.129C51.1758 177.428 51.0391 177.741 50.7656 178.066C50.5052 178.379 50.1602 178.665 49.7305 178.926C49.3008 179.186 48.7995 179.414 48.2266 179.609C47.6667 179.805 47.0872 179.967 46.4883 180.098C45.2904 180.358 44.0404 180.488 42.7383 180.488C41.4362 180.488 40.1211 180.241 38.793 179.746C37.4779 179.251 36.3385 178.529 35.375 177.578C33.3047 175.56 32.2695 172.832 32.2695 169.395C32.2695 163.366 34.3919 159.616 38.6367 158.145C39.9648 157.689 41.3255 157.461 42.7188 157.461C44.125 157.461 45.3164 157.611 46.293 157.91C47.2826 158.21 48.1354 158.652 48.8516 159.238C50.362 160.475 51.1172 162.201 51.1172 164.414C51.1172 166.589 50.2318 168.249 48.4609 169.395C46.9115 170.397 44.8672 170.898 42.3281 170.898C40.7656 170.898 38.9622 170.618 36.918 170.059ZM46.5273 164.355C46.5273 162.493 45.2773 161.562 42.7773 161.562C40.3945 161.562 38.7279 162.435 37.7773 164.18C37.4388 164.792 37.2174 165.547 37.1133 166.445C38.2331 167.005 39.6589 167.285 41.3906 167.285C44.8151 167.285 46.5273 166.309 46.5273 164.355ZM69.0273 157.48C72.3086 157.48 74.3854 158.945 75.2578 161.875C76.5599 159.779 78.2852 158.411 80.4336 157.773C81.1628 157.565 82.0807 157.461 83.1875 157.461C84.2943 157.461 85.362 157.734 86.3906 158.281C87.4323 158.828 88.2005 159.544 88.6953 160.43C89.2031 161.302 89.5221 162.266 89.6523 163.32C89.7956 164.375 89.8672 165.508 89.8672 166.719V178.711C89.8672 179.076 89.75 179.382 89.5156 179.629C89.2812 179.876 88.9362 180 88.4805 180H86.5664C86.0716 180 85.707 179.876 85.4727 179.629C85.2383 179.382 85.1211 179.076 85.1211 178.711V166.543C85.1211 164.863 84.8281 163.613 84.2422 162.793C83.6693 161.973 82.7578 161.562 81.5078 161.562C80.0885 161.562 78.8451 162.188 77.7773 163.438C76.6315 164.74 76.0586 166.354 76.0586 168.281V178.711C76.0586 179.076 75.9414 179.382 75.707 179.629C75.4727 179.876 75.1276 180 74.6719 180H72.7578C72.263 180 71.8984 179.876 71.6641 179.629C71.4297 179.382 71.3125 179.076 71.3125 178.711V166.543C71.3125 164.863 71.0195 163.613 70.4336 162.793C69.8607 161.973 68.9492 161.562 67.6992 161.562C66.2799 161.562 65.0299 162.188 63.9492 163.438C62.8164 164.74 62.25 166.354 62.25 168.281V178.711C62.25 179.076 62.1393 179.382 61.918 179.629C61.6966 179.876 61.3581 180 60.9023 180H58.8906C58.4349 180 58.0898 179.876 57.8555 179.629C57.6211 179.382 57.5039 179.076 57.5039 178.711V166.719C57.5039 164.102 57.4193 162.279 57.25 161.25C57.0807 160.208 56.9961 159.583 56.9961 159.375C56.9961 158.438 57.4453 157.969 58.3438 157.969H59.418C60.1471 157.969 60.6419 158.242 60.9023 158.789C61.2148 159.453 61.5143 160.482 61.8008 161.875C62.9336 159.831 64.5742 158.477 66.7227 157.812C67.4518 157.591 68.2201 157.48 69.0273 157.48ZM99.0273 170.078C98.7279 170.078 98.474 169.987 98.2656 169.805C98.0573 169.609 97.9531 169.382 97.9531 169.121V167.266C97.9531 167.005 98.0573 166.784 98.2656 166.602C98.474 166.419 98.7279 166.328 99.0273 166.328H110.902C111.202 166.328 111.456 166.426 111.664 166.621C111.885 166.803 111.996 167.025 111.996 167.285V169.141C111.996 169.401 111.885 169.622 111.664 169.805C111.456 169.987 111.202 170.078 110.902 170.078H99.0273ZM123.52 170.059L123.5 170.43C123.5 172.214 124.066 173.646 125.199 174.727C126.384 175.872 127.992 176.445 130.023 176.445C131.872 176.445 133.591 175.892 135.18 174.785C135.479 174.577 135.746 174.473 135.98 174.473C136.462 174.473 136.827 174.714 137.074 175.195L137.602 176.289C137.719 176.549 137.777 176.829 137.777 177.129C137.777 177.428 137.641 177.741 137.367 178.066C137.107 178.379 136.762 178.665 136.332 178.926C135.902 179.186 135.401 179.414 134.828 179.609C134.268 179.805 133.689 179.967 133.09 180.098C131.892 180.358 130.642 180.488 129.34 180.488C128.038 180.488 126.723 180.241 125.395 179.746C124.079 179.251 122.94 178.529 121.977 177.578C119.906 175.56 118.871 172.832 118.871 169.395C118.871 163.366 120.993 159.616 125.238 158.145C126.566 157.689 127.927 157.461 129.32 157.461C130.727 157.461 131.918 157.611 132.895 157.91C133.884 158.21 134.737 158.652 135.453 159.238C136.964 160.475 137.719 162.201 137.719 164.414C137.719 166.589 136.833 168.249 135.062 169.395C133.513 170.397 131.469 170.898 128.93 170.898C127.367 170.898 125.564 170.618 123.52 170.059ZM133.129 164.355C133.129 162.493 131.879 161.562 129.379 161.562C126.996 161.562 125.329 162.435 124.379 164.18C124.04 164.792 123.819 165.547 123.715 166.445C124.835 167.005 126.26 167.285 127.992 167.285C131.417 167.285 133.129 166.309 133.129 164.355ZM149.711 176.484C152.211 176.484 153.461 175.645 153.461 173.965C153.461 173.04 152.751 172.259 151.332 171.621C150.733 171.348 150.076 171.094 149.359 170.859C148.656 170.625 147.979 170.345 147.328 170.02C146.677 169.694 146.065 169.342 145.492 168.965C144.932 168.574 144.444 168.132 144.027 167.637C143.168 166.595 142.738 165.273 142.738 163.672C142.738 161.719 143.552 160.169 145.18 159.023C146.625 157.995 148.402 157.48 150.512 157.48C152.777 157.48 154.672 157.923 156.195 158.809C156.716 159.121 156.977 159.479 156.977 159.883C156.977 160.456 156.82 161.087 156.508 161.777C156.208 162.454 155.85 162.793 155.434 162.793C155.03 162.793 154.659 162.708 154.32 162.539C153.995 162.37 153.695 162.227 153.422 162.109C153.161 161.979 152.882 161.875 152.582 161.797C151.931 161.602 151.326 161.504 150.766 161.504C150.219 161.504 149.776 161.543 149.438 161.621C149.099 161.699 148.793 161.823 148.52 161.992C147.855 162.396 147.523 162.891 147.523 163.477C147.523 164.062 147.654 164.512 147.914 164.824C148.188 165.137 148.559 165.423 149.027 165.684C149.496 165.944 150.056 166.204 150.707 166.465L152.816 167.344C154.522 168.086 155.674 168.757 156.273 169.355C157.445 170.553 158.031 171.94 158.031 173.516C158.031 175.495 157.354 177.122 156 178.398C154.503 179.792 152.374 180.488 149.613 180.488C146.814 180.488 144.711 179.948 143.305 178.867C142.615 178.346 142.27 177.878 142.27 177.461C142.27 177.044 142.341 176.673 142.484 176.348C142.641 176.009 142.836 175.618 143.07 175.176C143.318 174.72 143.643 174.492 144.047 174.492C144.464 174.492 144.9 174.681 145.355 175.059C145.824 175.423 146.462 175.755 147.27 176.055C148.077 176.341 148.891 176.484 149.711 176.484ZM175.531 160.938C175.531 161.667 175.121 162.031 174.301 162.031H168.793V174.297C168.793 175.625 169.451 176.289 170.766 176.289C171.599 176.289 172.686 175.872 174.027 175.039C174.288 174.87 174.568 174.785 174.867 174.785C175.18 174.785 175.427 175 175.609 175.43L176.059 176.445C176.228 176.836 176.312 177.168 176.312 177.441C176.312 177.715 176.104 178.034 175.688 178.398C175.284 178.75 174.763 179.069 174.125 179.355C172.68 180.007 171.371 180.332 170.199 180.332C169.027 180.332 168.096 180.215 167.406 179.98C166.729 179.733 166.15 179.368 165.668 178.887C164.626 177.871 164.105 176.406 164.105 174.492V162.031H162.465C161.645 162.031 161.234 161.66 161.234 160.918V159.805C161.234 159.505 161.312 159.271 161.469 159.102C161.625 158.932 161.931 158.802 162.387 158.711L164.34 158.145L165.082 153.555C165.225 152.695 165.577 152.266 166.137 152.266H167.758C168.057 152.266 168.305 152.389 168.5 152.637C168.695 152.871 168.793 153.177 168.793 153.555V157.969H174.301C175.121 157.969 175.531 158.327 175.531 159.043V160.938ZM197.953 178.965C197.953 179.655 197.615 180 196.938 180H195.043C194.535 180 194.229 179.902 194.125 179.707C194.021 179.499 193.962 179.316 193.949 179.16C193.936 178.991 193.91 178.789 193.871 178.555C193.793 177.917 193.682 177.227 193.539 176.484C192.523 178.346 190.928 179.577 188.754 180.176C187.986 180.384 187.139 180.488 186.215 180.488C185.29 180.488 184.366 180.332 183.441 180.02C182.517 179.72 181.697 179.271 180.98 178.672C179.366 177.318 178.559 175.54 178.559 173.34C178.559 170.931 179.444 169.089 181.215 167.812C182.673 166.784 184.548 166.27 186.84 166.27C189.132 166.27 191.072 166.94 192.66 168.281C192.699 167.839 192.719 167.285 192.719 166.621C192.719 165.957 192.589 165.293 192.328 164.629C192.068 163.965 191.697 163.411 191.215 162.969C190.225 162.096 188.845 161.66 187.074 161.66C185.486 161.66 183.871 162.096 182.23 162.969C181.918 163.138 181.645 163.223 181.41 163.223C181.059 163.223 180.72 162.878 180.395 162.188C180.043 161.484 179.867 160.977 179.867 160.664C179.867 160.091 180.297 159.538 181.156 159.004C182.797 157.988 184.991 157.48 187.738 157.48C190.238 157.48 192.309 158.164 193.949 159.531C195.889 161.172 196.859 163.49 196.859 166.484C196.859 167.812 196.645 169.486 196.215 171.504C197.322 174.655 197.901 177.142 197.953 178.965ZM184.867 170.684C184.333 171.074 183.949 171.465 183.715 171.855C183.493 172.246 183.383 172.708 183.383 173.242C183.383 173.763 183.474 174.232 183.656 174.648C183.852 175.052 184.118 175.391 184.457 175.664C185.173 176.224 185.974 176.504 186.859 176.504C187.758 176.504 188.493 176.4 189.066 176.191C189.639 175.983 190.134 175.716 190.551 175.391C191.449 174.688 191.898 173.945 191.898 173.164C191.82 172.188 191.28 171.419 190.277 170.859C189.379 170.339 188.318 170.078 187.094 170.078C186.143 170.078 185.401 170.28 184.867 170.684ZM203.109 159.375C203.109 158.438 203.52 157.969 204.34 157.969H205.395C206.111 157.969 206.618 158.281 206.918 158.906C207.348 159.818 207.66 161.074 207.855 162.676C207.855 162.702 207.862 162.715 207.875 162.715C207.901 162.715 207.947 162.493 208.012 162.051C208.077 161.608 208.266 161.068 208.578 160.43C208.891 159.779 209.275 159.232 209.73 158.789C210.655 157.917 211.788 157.48 213.129 157.48C214.626 157.48 215.668 157.728 216.254 158.223C216.527 158.444 216.638 158.75 216.586 159.141L216.273 161.602C216.195 162.266 215.857 162.598 215.258 162.598C214.971 162.598 214.62 162.539 214.203 162.422C213.396 162.214 212.758 162.109 212.289 162.109C211.82 162.109 211.326 162.318 210.805 162.734C210.284 163.138 209.835 163.646 209.457 164.258C208.689 165.534 208.305 166.895 208.305 168.34V178.711C208.305 179.076 208.201 179.382 207.992 179.629C207.784 179.876 207.484 180 207.094 180H204.828C204.411 180 204.092 179.876 203.871 179.629C203.663 179.382 203.559 179.076 203.559 178.711V165.254C203.559 162.962 203.48 161.452 203.324 160.723C203.181 159.98 203.109 159.531 203.109 159.375Z" fill="black"/>
<path d="M13.9956 212.612C13.9956 212.871 13.8687 213 13.6147 213H12.9043C12.7139 213 12.5991 212.963 12.5601 212.89C12.521 212.812 12.499 212.744 12.4941 212.685C12.4893 212.622 12.4795 212.546 12.4648 212.458C12.4355 212.219 12.394 211.96 12.3403 211.682C11.9595 212.38 11.3613 212.841 10.5459 213.066C10.2578 213.144 9.94043 213.183 9.59375 213.183C9.24707 213.183 8.90039 213.125 8.55371 213.007C8.20703 212.895 7.89941 212.727 7.63086 212.502C7.02539 211.994 6.72266 211.328 6.72266 210.502C6.72266 209.599 7.05469 208.908 7.71875 208.43C8.26562 208.044 8.96875 207.851 9.82812 207.851C10.6875 207.851 11.415 208.103 12.0107 208.605C12.0254 208.439 12.0327 208.232 12.0327 207.983C12.0327 207.734 11.9839 207.485 11.8862 207.236C11.7886 206.987 11.6494 206.779 11.4688 206.613C11.0977 206.286 10.5801 206.123 9.91602 206.123C9.32031 206.123 8.71484 206.286 8.09961 206.613C7.98242 206.677 7.87988 206.708 7.79199 206.708C7.66016 206.708 7.5332 206.579 7.41113 206.32C7.2793 206.057 7.21338 205.866 7.21338 205.749C7.21338 205.534 7.37451 205.327 7.69678 205.126C8.31201 204.746 9.13477 204.555 10.165 204.555C11.1025 204.555 11.8789 204.812 12.4941 205.324C13.2217 205.939 13.5854 206.809 13.5854 207.932C13.5854 208.43 13.5049 209.057 13.3438 209.814C13.7588 210.996 13.9761 211.928 13.9956 212.612ZM9.08838 209.506C8.88818 209.653 8.74414 209.799 8.65625 209.946C8.57324 210.092 8.53174 210.266 8.53174 210.466C8.53174 210.661 8.56592 210.837 8.63428 210.993C8.70752 211.145 8.80762 211.271 8.93457 211.374C9.20312 211.584 9.50342 211.689 9.83545 211.689C10.1724 211.689 10.4482 211.65 10.6631 211.572C10.8779 211.494 11.0635 211.394 11.2197 211.271C11.5566 211.008 11.7251 210.729 11.7251 210.437C11.6958 210.07 11.4932 209.782 11.1172 209.572C10.7803 209.377 10.3823 209.279 9.92334 209.279C9.56689 209.279 9.28857 209.355 9.08838 209.506ZM18.1265 212.216C18.5854 211.992 19.0713 211.879 19.584 211.879C20.1016 211.879 20.5605 211.928 20.9609 212.026C21.3662 212.119 21.73 212.268 22.0522 212.473C22.7749 212.932 23.1362 213.574 23.1362 214.399C23.1362 215.258 22.7261 215.949 21.9058 216.472C21.1782 216.931 20.3042 217.16 19.2837 217.16C18.2437 217.16 17.377 216.936 16.6836 216.486C15.9365 215.998 15.563 215.334 15.563 214.494C15.563 213.474 16.1025 212.487 17.1816 211.535C17.6016 211.169 18.0654 210.839 18.5732 210.546C17.7773 210.473 17.0986 210.192 16.5371 209.704C15.9072 209.152 15.5923 208.466 15.5923 207.646C15.5923 206.704 15.9463 205.939 16.6543 205.354C17.3037 204.821 18.0776 204.555 18.9761 204.555C19.9429 204.555 20.7021 204.816 21.2539 205.339C21.4248 205.5 21.5615 205.683 21.6641 205.888C21.6641 205.439 21.6055 204.975 21.4883 204.497C21.376 204.013 21.3198 203.725 21.3198 203.632C21.3198 203.54 21.3369 203.466 21.3711 203.413C21.4102 203.354 21.4541 203.31 21.5029 203.281C21.5762 203.237 21.6592 203.215 21.752 203.215H22.3818C22.7871 203.215 22.9897 203.779 22.9897 204.907C22.9897 205.81 22.8091 206.643 22.4478 207.404C22.4575 207.512 22.4624 207.653 22.4624 207.829C22.4624 208.005 22.4233 208.21 22.3452 208.444C22.2671 208.679 22.1621 208.898 22.0303 209.104C21.9033 209.304 21.7544 209.489 21.5835 209.66C21.4175 209.831 21.2393 209.99 21.0488 210.136C20.8633 210.283 20.6753 210.417 20.4849 210.539C19.4155 211.218 18.7759 211.643 18.5659 211.813C18.356 211.979 18.2095 212.114 18.1265 212.216ZM17.7896 208.818C17.9556 208.959 18.1484 209.069 18.3682 209.147C18.5928 209.221 18.8296 209.257 19.0786 209.257C19.3325 209.257 19.5645 209.221 19.7744 209.147C19.9844 209.069 20.1699 208.957 20.3311 208.811C20.6729 208.503 20.8438 208.107 20.8438 207.624C20.8438 207.131 20.6533 206.743 20.2725 206.459C19.9355 206.21 19.5205 206.086 19.0273 206.086C18.2461 206.086 17.7065 206.376 17.4087 206.958C17.311 207.148 17.2622 207.37 17.2622 207.624C17.2622 207.873 17.3086 208.098 17.4014 208.298C17.4941 208.498 17.6235 208.671 17.7896 208.818ZM17.438 213.571C17.2573 213.776 17.167 214.003 17.167 214.252C17.167 214.501 17.228 214.714 17.3501 214.89C17.4722 215.065 17.6333 215.212 17.8335 215.329C18.2192 215.549 18.7026 215.659 19.2837 215.659C20.2017 215.659 20.8413 215.432 21.2026 214.978C21.3198 214.826 21.3784 214.636 21.3784 214.406C21.3784 214.177 21.3052 213.981 21.1587 213.82C21.0171 213.659 20.8389 213.535 20.624 213.447C20.2676 213.3 19.8037 213.227 19.2324 213.227C18.3535 213.227 17.7554 213.342 17.438 213.571ZM26.0879 209.272L26.0806 209.411C26.0806 210.08 26.293 210.617 26.7178 211.022C27.1621 211.452 27.7651 211.667 28.5269 211.667C29.2202 211.667 29.8647 211.459 30.4604 211.044C30.5728 210.966 30.6729 210.927 30.7607 210.927C30.9414 210.927 31.0781 211.018 31.1709 211.198L31.3687 211.608C31.4126 211.706 31.4346 211.811 31.4346 211.923C31.4346 212.036 31.3833 212.153 31.2808 212.275C31.1831 212.392 31.0537 212.5 30.8926 212.597C30.7314 212.695 30.5435 212.78 30.3286 212.854C30.1187 212.927 29.9014 212.988 29.6768 213.037C29.2275 213.134 28.7588 213.183 28.2705 213.183C27.7822 213.183 27.2891 213.09 26.791 212.905C26.2979 212.719 25.8706 212.448 25.5093 212.092C24.7329 211.335 24.3447 210.312 24.3447 209.023C24.3447 206.762 25.1406 205.356 26.7324 204.804C27.2305 204.633 27.7407 204.548 28.2632 204.548C28.7905 204.548 29.2373 204.604 29.6035 204.716C29.9746 204.829 30.2944 204.995 30.563 205.214C31.1294 205.678 31.4126 206.325 31.4126 207.155C31.4126 207.971 31.0806 208.593 30.4165 209.023C29.8354 209.399 29.0688 209.587 28.1167 209.587C27.5308 209.587 26.8545 209.482 26.0879 209.272ZM29.6914 207.133C29.6914 206.435 29.2227 206.086 28.2852 206.086C27.3916 206.086 26.7666 206.413 26.4102 207.067C26.2832 207.297 26.2002 207.58 26.1611 207.917C26.5811 208.127 27.1157 208.232 27.7651 208.232C29.0493 208.232 29.6914 207.866 29.6914 207.133ZM33.6172 205.266C33.6172 204.914 33.7856 204.738 34.1226 204.738H34.5254C34.7988 204.738 34.9844 204.841 35.082 205.046C35.2188 205.339 35.3359 205.725 35.4336 206.203C35.873 205.402 36.5273 204.89 37.3965 204.665C37.6699 204.592 38.0093 204.555 38.4146 204.555C38.8247 204.555 39.2031 204.643 39.5498 204.819C39.8965 204.99 40.1699 205.227 40.3701 205.529C40.7412 206.081 40.9268 206.894 40.9268 207.968V212.517C40.9268 212.653 40.8828 212.768 40.7949 212.861C40.707 212.954 40.5776 213 40.4067 213H39.689C39.5034 213 39.3667 212.954 39.2788 212.861C39.1909 212.768 39.147 212.653 39.147 212.517V207.961C39.147 206.711 38.688 206.086 37.77 206.086C37.2329 206.086 36.7422 206.311 36.2979 206.76C35.8242 207.243 35.5874 207.805 35.5874 208.444V212.517C35.5874 212.653 35.5459 212.768 35.4629 212.861C35.3799 212.954 35.2529 213 35.082 213H34.3276C34.1567 213 34.0273 212.954 33.9395 212.861C33.8516 212.768 33.8076 212.653 33.8076 212.517V208.02C33.8076 207.038 33.7759 206.354 33.7124 205.969C33.6489 205.578 33.6172 205.344 33.6172 205.266ZM49.0786 205.771V200.476C49.0786 200.349 49.1152 200.241 49.1885 200.153C49.2666 200.061 49.3618 200.014 49.4741 200.014H50.4922C50.6045 200.014 50.6973 200.061 50.7705 200.153C50.8438 200.241 50.8804 200.349 50.8804 200.476V209.865C50.8804 210.852 50.9585 211.669 51.1147 212.319C51.1294 212.387 51.1367 212.475 51.1367 212.583C51.1367 212.685 51.0903 212.78 50.9976 212.868C50.9097 212.956 50.7949 213 50.6533 213H50.2944C50.0063 213 49.8135 212.883 49.7158 212.648C49.5889 212.351 49.4839 211.958 49.4009 211.469C49.0249 212.265 48.3926 212.795 47.5039 213.059C47.2109 213.142 46.8447 213.183 46.4053 213.183C45.9707 213.183 45.5361 213.071 45.1016 212.846C44.6719 212.622 44.3057 212.316 44.0029 211.931C43.3828 211.13 43.0728 210.134 43.0728 208.942C43.0728 207.712 43.373 206.691 43.9736 205.881C44.623 204.997 45.4897 204.555 46.5737 204.555C47.6577 204.555 48.4927 204.96 49.0786 205.771ZM44.9478 208.994C44.9478 209.326 44.9868 209.65 45.0649 209.968C45.1479 210.285 45.2725 210.568 45.4385 210.817C45.8096 211.384 46.3223 211.667 46.9766 211.667C47.5723 211.667 48.0947 211.408 48.5439 210.891C49.0225 210.354 49.2617 209.719 49.2617 208.986C49.2617 208.098 49.0298 207.385 48.5659 206.848C48.1216 206.335 47.5747 206.079 46.9253 206.079C46.2466 206.079 45.7314 206.398 45.3799 207.038C45.0918 207.575 44.9478 208.227 44.9478 208.994ZM60.2407 212.612C60.2407 212.871 60.1138 213 59.8599 213H59.1494C58.959 213 58.8442 212.963 58.8052 212.89C58.7661 212.812 58.7441 212.744 58.7393 212.685C58.7344 212.622 58.7246 212.546 58.71 212.458C58.6807 212.219 58.6392 211.96 58.5854 211.682C58.2046 212.38 57.6064 212.841 56.791 213.066C56.5029 213.144 56.1855 213.183 55.8389 213.183C55.4922 213.183 55.1455 213.125 54.7988 213.007C54.4521 212.895 54.1445 212.727 53.876 212.502C53.2705 211.994 52.9678 211.328 52.9678 210.502C52.9678 209.599 53.2998 208.908 53.9639 208.43C54.5107 208.044 55.2139 207.851 56.0732 207.851C56.9326 207.851 57.6602 208.103 58.2559 208.605C58.2705 208.439 58.2778 208.232 58.2778 207.983C58.2778 207.734 58.229 207.485 58.1313 207.236C58.0337 206.987 57.8945 206.779 57.7139 206.613C57.3428 206.286 56.8252 206.123 56.1611 206.123C55.5654 206.123 54.96 206.286 54.3447 206.613C54.2275 206.677 54.125 206.708 54.0371 206.708C53.9053 206.708 53.7783 206.579 53.6562 206.32C53.5244 206.057 53.4585 205.866 53.4585 205.749C53.4585 205.534 53.6196 205.327 53.9419 205.126C54.5571 204.746 55.3799 204.555 56.4102 204.555C57.3477 204.555 58.124 204.812 58.7393 205.324C59.4668 205.939 59.8306 206.809 59.8306 207.932C59.8306 208.43 59.75 209.057 59.5889 209.814C60.0039 210.996 60.2212 211.928 60.2407 212.612ZM55.3335 209.506C55.1333 209.653 54.9893 209.799 54.9014 209.946C54.8184 210.092 54.7769 210.266 54.7769 210.466C54.7769 210.661 54.811 210.837 54.8794 210.993C54.9526 211.145 55.0527 211.271 55.1797 211.374C55.4482 211.584 55.7485 211.689 56.0806 211.689C56.4175 211.689 56.6934 211.65 56.9082 211.572C57.123 211.494 57.3086 211.394 57.4648 211.271C57.8018 211.008 57.9702 210.729 57.9702 210.437C57.9409 210.07 57.7383 209.782 57.3623 209.572C57.0254 209.377 56.6274 209.279 56.1685 209.279C55.812 209.279 55.5337 209.355 55.3335 209.506ZM66.8691 204.555C68.0996 204.555 68.8784 205.104 69.2056 206.203C69.6938 205.417 70.3408 204.904 71.1465 204.665C71.4199 204.587 71.7642 204.548 72.1792 204.548C72.5942 204.548 72.9946 204.65 73.3804 204.855C73.771 205.061 74.0591 205.329 74.2446 205.661C74.4351 205.988 74.5547 206.35 74.6035 206.745C74.6572 207.141 74.6841 207.565 74.6841 208.02V212.517C74.6841 212.653 74.6401 212.768 74.5522 212.861C74.4644 212.954 74.335 213 74.1641 213H73.4463C73.2607 213 73.124 212.954 73.0361 212.861C72.9482 212.768 72.9043 212.653 72.9043 212.517V207.954C72.9043 207.324 72.7944 206.855 72.5747 206.547C72.3599 206.24 72.0181 206.086 71.5493 206.086C71.0171 206.086 70.5508 206.32 70.1504 206.789C69.7207 207.277 69.5059 207.883 69.5059 208.605V212.517C69.5059 212.653 69.4619 212.768 69.374 212.861C69.2861 212.954 69.1567 213 68.9858 213H68.2681C68.0825 213 67.9458 212.954 67.8579 212.861C67.77 212.768 67.7261 212.653 67.7261 212.517V207.954C67.7261 207.324 67.6162 206.855 67.3965 206.547C67.1816 206.24 66.8398 206.086 66.3711 206.086C65.8389 206.086 65.3701 206.32 64.9648 206.789C64.54 207.277 64.3276 207.883 64.3276 208.605V212.517C64.3276 212.653 64.2861 212.768 64.2031 212.861C64.1201 212.954 63.9932 213 63.8223 213H63.0679C62.897 213 62.7676 212.954 62.6797 212.861C62.5918 212.768 62.5479 212.653 62.5479 212.517V208.02C62.5479 207.038 62.5161 206.354 62.4526 205.969C62.3892 205.578 62.3574 205.344 62.3574 205.266C62.3574 204.914 62.5259 204.738 62.8628 204.738H63.2656C63.5391 204.738 63.7246 204.841 63.8223 205.046C63.9395 205.295 64.0518 205.681 64.1592 206.203C64.584 205.437 65.1992 204.929 66.0049 204.68C66.2783 204.597 66.5664 204.555 66.8691 204.555ZM78.5586 209.272L78.5513 209.411C78.5513 210.08 78.7637 210.617 79.1885 211.022C79.6328 211.452 80.2358 211.667 80.9976 211.667C81.6909 211.667 82.3354 211.459 82.9312 211.044C83.0435 210.966 83.1436 210.927 83.2314 210.927C83.4121 210.927 83.5488 211.018 83.6416 211.198L83.8394 211.608C83.8833 211.706 83.9053 211.811 83.9053 211.923C83.9053 212.036 83.854 212.153 83.7515 212.275C83.6538 212.392 83.5244 212.5 83.3633 212.597C83.2021 212.695 83.0142 212.78 82.7993 212.854C82.5894 212.927 82.3721 212.988 82.1475 213.037C81.6982 213.134 81.2295 213.183 80.7412 213.183C80.2529 213.183 79.7598 213.09 79.2617 212.905C78.7686 212.719 78.3413 212.448 77.98 212.092C77.2036 211.335 76.8154 210.312 76.8154 209.023C76.8154 206.762 77.6113 205.356 79.2031 204.804C79.7012 204.633 80.2114 204.548 80.7339 204.548C81.2612 204.548 81.708 204.604 82.0742 204.716C82.4453 204.829 82.7651 204.995 83.0337 205.214C83.6001 205.678 83.8833 206.325 83.8833 207.155C83.8833 207.971 83.5513 208.593 82.8872 209.023C82.3062 209.399 81.5396 209.587 80.5874 209.587C80.0015 209.587 79.3252 209.482 78.5586 209.272ZM82.1621 207.133C82.1621 206.435 81.6934 206.086 80.7559 206.086C79.8623 206.086 79.2373 206.413 78.8809 207.067C78.7539 207.297 78.6709 207.58 78.6318 207.917C79.0518 208.127 79.5864 208.232 80.2358 208.232C81.52 208.232 82.1621 207.866 82.1621 207.133ZM86.0879 205.266C86.0879 204.914 86.2563 204.738 86.5933 204.738H86.9961C87.2695 204.738 87.4551 204.841 87.5527 205.046C87.6895 205.339 87.8066 205.725 87.9043 206.203C88.3438 205.402 88.998 204.89 89.8672 204.665C90.1406 204.592 90.48 204.555 90.8853 204.555C91.2954 204.555 91.6738 204.643 92.0205 204.819C92.3672 204.99 92.6406 205.227 92.8408 205.529C93.2119 206.081 93.3975 206.894 93.3975 207.968V212.517C93.3975 212.653 93.3535 212.768 93.2656 212.861C93.1777 212.954 93.0483 213 92.8774 213H92.1597C91.9741 213 91.8374 212.954 91.7495 212.861C91.6616 212.768 91.6177 212.653 91.6177 212.517V207.961C91.6177 206.711 91.1587 206.086 90.2407 206.086C89.7036 206.086 89.2129 206.311 88.7686 206.76C88.2949 207.243 88.0581 207.805 88.0581 208.444V212.517C88.0581 212.653 88.0166 212.768 87.9336 212.861C87.8506 212.954 87.7236 213 87.5527 213H86.7983C86.6274 213 86.498 212.954 86.4102 212.861C86.3223 212.768 86.2783 212.653 86.2783 212.517V208.02C86.2783 207.038 86.2466 206.354 86.1831 205.969C86.1196 205.578 86.0879 205.344 86.0879 205.266ZM100.553 205.852C100.553 206.125 100.399 206.262 100.092 206.262H98.0264V210.861C98.0264 211.359 98.2729 211.608 98.7661 211.608C99.0786 211.608 99.4863 211.452 99.9893 211.14C100.087 211.076 100.192 211.044 100.304 211.044C100.421 211.044 100.514 211.125 100.583 211.286L100.751 211.667C100.814 211.813 100.846 211.938 100.846 212.041C100.846 212.143 100.768 212.263 100.612 212.399C100.46 212.531 100.265 212.651 100.026 212.758C99.4839 213.002 98.9932 213.125 98.5537 213.125C98.1143 213.125 97.7651 213.081 97.5063 212.993C97.2524 212.9 97.0352 212.763 96.8545 212.583C96.4639 212.202 96.2686 211.652 96.2686 210.935V206.262H95.6533C95.3457 206.262 95.1919 206.123 95.1919 205.844V205.427C95.1919 205.314 95.2212 205.227 95.2798 205.163C95.3384 205.1 95.4531 205.051 95.624 205.017L96.3564 204.804L96.6348 203.083C96.6885 202.761 96.8203 202.6 97.0303 202.6H97.6382C97.7505 202.6 97.8433 202.646 97.9165 202.739C97.9897 202.827 98.0264 202.941 98.0264 203.083V204.738H100.092C100.399 204.738 100.553 204.873 100.553 205.141V205.852ZM101.85 208.84C101.85 208.205 101.955 207.624 102.165 207.097C102.379 206.564 102.672 206.11 103.043 205.734C103.82 204.948 104.799 204.555 105.98 204.555C107.304 204.555 108.329 204.948 109.057 205.734C109.76 206.491 110.111 207.531 110.111 208.854C110.111 210.134 109.713 211.179 108.917 211.989C108.141 212.785 107.162 213.183 105.98 213.183C104.735 213.183 103.734 212.775 102.978 211.96C102.226 211.164 101.85 210.124 101.85 208.84ZM104.201 206.979C104.02 207.248 103.888 207.556 103.805 207.902C103.722 208.244 103.681 208.593 103.681 208.95C103.681 209.301 103.727 209.641 103.82 209.968C103.917 210.29 104.062 210.578 104.252 210.832C104.672 211.389 105.258 211.667 106.01 211.667C106.776 211.667 107.357 211.394 107.753 210.847C108.104 210.368 108.28 209.716 108.28 208.891C108.28 207.656 107.875 206.804 107.064 206.335C106.767 206.164 106.405 206.079 105.98 206.079C105.561 206.079 105.204 206.162 104.911 206.328C104.623 206.489 104.386 206.706 104.201 206.979ZM121.559 205.771V200.476C121.559 200.349 121.596 200.241 121.669 200.153C121.747 200.061 121.842 200.014 121.955 200.014H122.973C123.085 200.014 123.178 200.061 123.251 200.153C123.324 200.241 123.361 200.349 123.361 200.476V209.865C123.361 210.852 123.439 211.669 123.595 212.319C123.61 212.387 123.617 212.475 123.617 212.583C123.617 212.685 123.571 212.78 123.478 212.868C123.39 212.956 123.275 213 123.134 213H122.775C122.487 213 122.294 212.883 122.196 212.648C122.069 212.351 121.964 211.958 121.881 211.469C121.505 212.265 120.873 212.795 119.984 213.059C119.691 213.142 119.325 213.183 118.886 213.183C118.451 213.183 118.017 213.071 117.582 212.846C117.152 212.622 116.786 212.316 116.483 211.931C115.863 211.13 115.553 210.134 115.553 208.942C115.553 207.712 115.854 206.691 116.454 205.881C117.104 204.997 117.97 204.555 119.054 204.555C120.138 204.555 120.973 204.96 121.559 205.771ZM117.428 208.994C117.428 209.326 117.467 209.65 117.545 209.968C117.628 210.285 117.753 210.568 117.919 210.817C118.29 211.384 118.803 211.667 119.457 211.667C120.053 211.667 120.575 211.408 121.024 210.891C121.503 210.354 121.742 209.719 121.742 208.986C121.742 208.098 121.51 207.385 121.046 206.848C120.602 206.335 120.055 206.079 119.406 206.079C118.727 206.079 118.212 206.398 117.86 207.038C117.572 207.575 117.428 208.227 117.428 208.994ZM127.309 209.272L127.301 209.411C127.301 210.08 127.514 210.617 127.938 211.022C128.383 211.452 128.986 211.667 129.748 211.667C130.441 211.667 131.085 211.459 131.681 211.044C131.793 210.966 131.894 210.927 131.981 210.927C132.162 210.927 132.299 211.018 132.392 211.198L132.589 211.608C132.633 211.706 132.655 211.811 132.655 211.923C132.655 212.036 132.604 212.153 132.501 212.275C132.404 212.392 132.274 212.5 132.113 212.597C131.952 212.695 131.764 212.78 131.549 212.854C131.339 212.927 131.122 212.988 130.897 213.037C130.448 213.134 129.979 213.183 129.491 213.183C129.003 213.183 128.51 213.09 128.012 212.905C127.519 212.719 127.091 212.448 126.73 212.092C125.954 211.335 125.565 210.312 125.565 209.023C125.565 206.762 126.361 205.356 127.953 204.804C128.451 204.633 128.961 204.548 129.484 204.548C130.011 204.548 130.458 204.604 130.824 204.716C131.195 204.829 131.515 204.995 131.784 205.214C132.35 205.678 132.633 206.325 132.633 207.155C132.633 207.971 132.301 208.593 131.637 209.023C131.056 209.399 130.29 209.587 129.337 209.587C128.751 209.587 128.075 209.482 127.309 209.272ZM130.912 207.133C130.912 206.435 130.443 206.086 129.506 206.086C128.612 206.086 127.987 206.413 127.631 207.067C127.504 207.297 127.421 207.58 127.382 207.917C127.802 208.127 128.336 208.232 128.986 208.232C130.27 208.232 130.912 207.866 130.912 207.133ZM144.103 207.998C143.703 207.998 143.502 207.8 143.502 207.404C143.502 206.95 143.363 206.604 143.085 206.364C142.846 206.154 142.523 206.049 142.118 206.049C141.718 206.049 141.386 206.132 141.122 206.298C140.858 206.464 140.644 206.677 140.478 206.936C140.155 207.443 139.994 208.054 139.994 208.767C139.994 210.1 140.399 210.974 141.21 211.389C141.503 211.54 141.828 211.616 142.184 211.616C142.541 211.616 142.833 211.577 143.063 211.499C143.292 211.42 143.498 211.335 143.678 211.242C143.859 211.149 144.015 211.064 144.147 210.986C144.284 210.908 144.396 210.869 144.484 210.869C144.66 210.869 144.799 210.949 144.901 211.11L145.062 211.381C145.136 211.508 145.172 211.633 145.172 211.755C145.172 211.872 145.124 211.997 145.026 212.128C144.928 212.255 144.796 212.373 144.63 212.48C144.469 212.587 144.284 212.685 144.074 212.773C143.864 212.861 143.646 212.937 143.422 213C142.348 213.288 141.366 213.244 140.478 212.868C139.481 212.448 138.795 211.696 138.419 210.612C138.234 210.075 138.141 209.475 138.141 208.811C138.141 208.146 138.239 207.551 138.434 207.023C138.634 206.496 138.91 206.049 139.262 205.683C139.989 204.931 140.939 204.555 142.111 204.555C143.146 204.555 143.939 204.826 144.491 205.368C144.955 205.832 145.187 206.413 145.187 207.111C145.187 207.702 144.884 207.998 144.279 207.998H144.103ZM146.879 208.84C146.879 208.205 146.984 207.624 147.194 207.097C147.409 206.564 147.702 206.11 148.073 205.734C148.849 204.948 149.828 204.555 151.01 204.555C152.333 204.555 153.358 204.948 154.086 205.734C154.789 206.491 155.141 207.531 155.141 208.854C155.141 210.134 154.743 211.179 153.947 211.989C153.17 212.785 152.191 213.183 151.01 213.183C149.765 213.183 148.764 212.775 148.007 211.96C147.255 211.164 146.879 210.124 146.879 208.84ZM149.23 206.979C149.049 207.248 148.917 207.556 148.834 207.902C148.751 208.244 148.71 208.593 148.71 208.95C148.71 209.301 148.756 209.641 148.849 209.968C148.947 210.29 149.091 210.578 149.281 210.832C149.701 211.389 150.287 211.667 151.039 211.667C151.806 211.667 152.387 211.394 152.782 210.847C153.134 210.368 153.31 209.716 153.31 208.891C153.31 207.656 152.904 206.804 152.094 206.335C151.796 206.164 151.435 206.079 151.01 206.079C150.59 206.079 150.233 206.162 149.94 206.328C149.652 206.489 149.416 206.706 149.23 206.979ZM157.353 205.266C157.353 204.914 157.521 204.738 157.858 204.738H158.261C158.534 204.738 158.72 204.841 158.817 205.046C158.954 205.339 159.071 205.725 159.169 206.203C159.608 205.402 160.263 204.89 161.132 204.665C161.405 204.592 161.745 204.555 162.15 204.555C162.56 204.555 162.938 204.643 163.285 204.819C163.632 204.99 163.905 205.227 164.105 205.529C164.477 206.081 164.662 206.894 164.662 207.968V212.517C164.662 212.653 164.618 212.768 164.53 212.861C164.442 212.954 164.313 213 164.142 213H163.424C163.239 213 163.102 212.954 163.014 212.861C162.926 212.768 162.882 212.653 162.882 212.517V207.961C162.882 206.711 162.423 206.086 161.505 206.086C160.968 206.086 160.478 206.311 160.033 206.76C159.56 207.243 159.323 207.805 159.323 208.444V212.517C159.323 212.653 159.281 212.768 159.198 212.861C159.115 212.954 158.988 213 158.817 213H158.063C157.892 213 157.763 212.954 157.675 212.861C157.587 212.768 157.543 212.653 157.543 212.517V208.02C157.543 207.038 157.511 206.354 157.448 205.969C157.384 205.578 157.353 205.344 157.353 205.266ZM169.635 211.682C170.573 211.682 171.042 211.367 171.042 210.737C171.042 210.39 170.775 210.097 170.243 209.858C170.019 209.755 169.772 209.66 169.503 209.572C169.24 209.484 168.986 209.379 168.742 209.257C168.498 209.135 168.268 209.003 168.053 208.862C167.843 208.715 167.66 208.549 167.504 208.364C167.182 207.973 167.021 207.478 167.021 206.877C167.021 206.145 167.326 205.563 167.936 205.134C168.478 204.748 169.145 204.555 169.936 204.555C170.785 204.555 171.496 204.721 172.067 205.053C172.262 205.17 172.36 205.305 172.36 205.456C172.36 205.671 172.301 205.908 172.184 206.167C172.072 206.42 171.938 206.547 171.781 206.547C171.63 206.547 171.491 206.516 171.364 206.452C171.242 206.389 171.129 206.335 171.027 206.291C170.929 206.242 170.824 206.203 170.712 206.174C170.468 206.101 170.241 206.064 170.031 206.064C169.826 206.064 169.66 206.079 169.533 206.108C169.406 206.137 169.291 206.184 169.188 206.247C168.939 206.398 168.815 206.584 168.815 206.804C168.815 207.023 168.864 207.192 168.961 207.309C169.064 207.426 169.203 207.534 169.379 207.631C169.555 207.729 169.765 207.827 170.009 207.924L170.8 208.254C171.439 208.532 171.872 208.784 172.096 209.008C172.536 209.458 172.755 209.978 172.755 210.568C172.755 211.311 172.501 211.921 171.994 212.399C171.432 212.922 170.634 213.183 169.599 213.183C168.549 213.183 167.76 212.98 167.233 212.575C166.974 212.38 166.845 212.204 166.845 212.048C166.845 211.892 166.872 211.752 166.925 211.63C166.984 211.503 167.057 211.357 167.145 211.191C167.238 211.02 167.36 210.935 167.511 210.935C167.667 210.935 167.831 211.005 168.002 211.147C168.178 211.284 168.417 211.408 168.72 211.521C169.022 211.628 169.328 211.682 169.635 211.682ZM182.248 212.502C182.248 212.834 182.096 213 181.793 213H181.464C181.171 213 180.978 212.883 180.885 212.648C180.783 212.38 180.673 212.006 180.556 211.528C180.351 212.041 180.001 212.446 179.508 212.744C179.02 213.037 178.41 213.183 177.677 213.183C176.72 213.183 176.015 212.885 175.561 212.29C175.106 211.689 174.879 210.805 174.879 209.638V205.222C174.879 205.085 174.921 204.97 175.004 204.877C175.092 204.785 175.214 204.738 175.37 204.738H176.176C176.498 204.738 176.659 204.899 176.659 205.222V209.558C176.659 210.725 176.93 211.398 177.472 211.579C177.648 211.638 177.855 211.667 178.095 211.667C178.339 211.667 178.588 211.611 178.842 211.499C179.101 211.386 179.333 211.237 179.538 211.052C179.997 210.627 180.226 210.141 180.226 209.594V205.222C180.226 205.085 180.268 204.97 180.351 204.877C180.434 204.785 180.565 204.738 180.746 204.738H181.515C181.686 204.738 181.811 204.785 181.889 204.877C181.967 204.97 182.006 205.085 182.006 205.222V209.799C182.006 210.83 182.079 211.66 182.226 212.29C182.24 212.343 182.248 212.414 182.248 212.502ZM186.62 210.986C186.62 211.333 186.742 211.506 186.986 211.506C187.064 211.506 187.165 211.484 187.287 211.44C187.511 211.357 187.648 211.315 187.697 211.315C187.809 211.315 187.897 211.386 187.96 211.528L188.188 212.048C188.217 212.121 188.231 212.189 188.231 212.253C188.231 212.365 188.139 212.502 187.953 212.663C187.582 212.971 187.096 213.125 186.496 213.125C185.402 213.125 184.855 212.395 184.855 210.935V200.49C184.855 200.358 184.894 200.246 184.972 200.153C185.05 200.061 185.143 200.014 185.25 200.014H186.232C186.344 200.014 186.437 200.061 186.51 200.153C186.583 200.246 186.62 200.358 186.62 200.49V210.986ZM194.318 205.852C194.318 206.125 194.164 206.262 193.856 206.262H191.791V210.861C191.791 211.359 192.038 211.608 192.531 211.608C192.843 211.608 193.251 211.452 193.754 211.14C193.852 211.076 193.957 211.044 194.069 211.044C194.186 211.044 194.279 211.125 194.347 211.286L194.516 211.667C194.579 211.813 194.611 211.938 194.611 212.041C194.611 212.143 194.533 212.263 194.376 212.399C194.225 212.531 194.03 212.651 193.791 212.758C193.249 213.002 192.758 213.125 192.318 213.125C191.879 213.125 191.53 213.081 191.271 212.993C191.017 212.9 190.8 212.763 190.619 212.583C190.229 212.202 190.033 211.652 190.033 210.935V206.262H189.418C189.11 206.262 188.957 206.123 188.957 205.844V205.427C188.957 205.314 188.986 205.227 189.044 205.163C189.103 205.1 189.218 205.051 189.389 205.017L190.121 204.804L190.399 203.083C190.453 202.761 190.585 202.6 190.795 202.6H191.403C191.515 202.6 191.608 202.646 191.681 202.739C191.754 202.827 191.791 202.941 191.791 203.083V204.738H193.856C194.164 204.738 194.318 204.873 194.318 205.141V205.852ZM202.726 212.612C202.726 212.871 202.599 213 202.345 213H201.635C201.444 213 201.33 212.963 201.291 212.89C201.251 212.812 201.229 212.744 201.225 212.685C201.22 212.622 201.21 212.546 201.195 212.458C201.166 212.219 201.125 211.96 201.071 211.682C200.69 212.38 200.092 212.841 199.276 213.066C198.988 213.144 198.671 213.183 198.324 213.183C197.978 213.183 197.631 213.125 197.284 213.007C196.938 212.895 196.63 212.727 196.361 212.502C195.756 211.994 195.453 211.328 195.453 210.502C195.453 209.599 195.785 208.908 196.449 208.43C196.996 208.044 197.699 207.851 198.559 207.851C199.418 207.851 200.146 208.103 200.741 208.605C200.756 208.439 200.763 208.232 200.763 207.983C200.763 207.734 200.714 207.485 200.617 207.236C200.519 206.987 200.38 206.779 200.199 206.613C199.828 206.286 199.311 206.123 198.646 206.123C198.051 206.123 197.445 206.286 196.83 206.613C196.713 206.677 196.61 206.708 196.522 206.708C196.391 206.708 196.264 206.579 196.142 206.32C196.01 206.057 195.944 205.866 195.944 205.749C195.944 205.534 196.105 205.327 196.427 205.126C197.042 204.746 197.865 204.555 198.896 204.555C199.833 204.555 200.609 204.812 201.225 205.324C201.952 205.939 202.316 206.809 202.316 207.932C202.316 208.43 202.235 209.057 202.074 209.814C202.489 210.996 202.707 211.928 202.726 212.612ZM197.819 209.506C197.619 209.653 197.475 209.799 197.387 209.946C197.304 210.092 197.262 210.266 197.262 210.466C197.262 210.661 197.296 210.837 197.365 210.993C197.438 211.145 197.538 211.271 197.665 211.374C197.934 211.584 198.234 211.689 198.566 211.689C198.903 211.689 199.179 211.65 199.394 211.572C199.608 211.494 199.794 211.394 199.95 211.271C200.287 211.008 200.456 210.729 200.456 210.437C200.426 210.07 200.224 209.782 199.848 209.572C199.511 209.377 199.113 209.279 198.654 209.279C198.297 209.279 198.019 209.355 197.819 209.506ZM207.135 211.682C208.073 211.682 208.542 211.367 208.542 210.737C208.542 210.39 208.275 210.097 207.743 209.858C207.519 209.755 207.272 209.66 207.003 209.572C206.74 209.484 206.486 209.379 206.242 209.257C205.998 209.135 205.768 209.003 205.553 208.862C205.343 208.715 205.16 208.549 205.004 208.364C204.682 207.973 204.521 207.478 204.521 206.877C204.521 206.145 204.826 205.563 205.436 205.134C205.978 204.748 206.645 204.555 207.436 204.555C208.285 204.555 208.996 204.721 209.567 205.053C209.762 205.17 209.86 205.305 209.86 205.456C209.86 205.671 209.801 205.908 209.684 206.167C209.572 206.42 209.438 206.547 209.281 206.547C209.13 206.547 208.991 206.516 208.864 206.452C208.742 206.389 208.629 206.335 208.527 206.291C208.429 206.242 208.324 206.203 208.212 206.174C207.968 206.101 207.741 206.064 207.531 206.064C207.326 206.064 207.16 206.079 207.033 206.108C206.906 206.137 206.791 206.184 206.688 206.247C206.439 206.398 206.315 206.584 206.315 206.804C206.315 207.023 206.364 207.192 206.461 207.309C206.564 207.426 206.703 207.534 206.879 207.631C207.055 207.729 207.265 207.827 207.509 207.924L208.3 208.254C208.939 208.532 209.372 208.784 209.596 209.008C210.036 209.458 210.255 209.978 210.255 210.568C210.255 211.311 210.001 211.921 209.494 212.399C208.932 212.922 208.134 213.183 207.099 213.183C206.049 213.183 205.26 212.98 204.733 212.575C204.474 212.38 204.345 212.204 204.345 212.048C204.345 211.892 204.372 211.752 204.425 211.63C204.484 211.503 204.557 211.357 204.645 211.191C204.738 211.02 204.86 210.935 205.011 210.935C205.167 210.935 205.331 211.005 205.502 211.147C205.678 211.284 205.917 211.408 206.22 211.521C206.522 211.628 206.828 211.682 207.135 211.682Z" fill="black"/>
</svg>
